<?xml version="1.0" standalone="no"?><!DOCTYPE svg PUBLIC "-//W3C//DTD SVG 1.1//EN" "http://www.w3.org/Graphics/SVG/1.1/DTD/svg11.dtd"><svg t="1719565849339" class="icon" viewBox="0 0 1024 1024" version="1.1" xmlns="http://www.w3.org/2000/svg" p-id="6034" xmlns:xlink="http://www.w3.org/1999/xlink" width="64" height="64"><path d="M658.957 88.838c10.816 44.23 6.669 97.539-12.503 136.778-75.105-32.459-184.458-36.658-250.424 20.067h-5.886c-19.964-48.43-13.338-108.519-5.774-160.2 76.731-46.803 196.066-42.707 274.587 3.355m-337.24 38.37c0.946 127.742 45.95 244.556 154.409 320.504 5.042 2.418 0 4.887 0 8.407-44.17 30.677-91.756 52.525-141.863 67.498C260 492.725 240.778 411.786 231.639 339.142c-1.678-82.669 35.031-150.167 84.243-211.942h5.835z" fill="#806d9e" p-id="6035"></path><path d="M764.945 203.122c36.71 68.548 34.248 171.92-4.2 238.626C698.98 555.31 577.967 600.322 454.433 592.027c-27.519-3.261-58.402-6.678-74.261-28.423 174.476-59.194 327.998-236.148 336.345-424.83 24.215 11.823 36.77 41.872 48.43 64.348" fill="#806d9e" p-id="6036"></path><path d="M618.892 277.392c-15.808 50.064-45.951 94.397-84.347 134.41-53.42-5.876-100.946-61.654-120.17-108.56 4.148-24.215 32.614-30.892 51.786-40.031 45.065-15.86 115.23-23.371 152.74 14.19" fill="#c71638" p-id="6037"></path></svg>