<?xml version="1.0" standalone="no"?><!DOCTYPE svg PUBLIC "-//W3C//DTD SVG 1.1//EN" "http://www.w3.org/Graphics/SVG/1.1/DTD/svg11.dtd"><svg t="1719566679414" class="icon" viewBox="0 0 1024 1024" version="1.1" xmlns="http://www.w3.org/2000/svg" p-id="12947" xmlns:xlink="http://www.w3.org/1999/xlink" width="64" height="64"><path d="M510.825895 379.145528c7.405892 0.180632 12.463574-7.405892 9.754101-14.089257-1.083789-2.890104-3.070736-5.418945-6.322103-6.502734-8.128418-2.709473-35.765038 2.528841-44.615982 5.238314-8.850944 2.709473-24.02399 14.992415-27.997883 19.869466-3.973893 4.696419-16.256835 7.044629-18.785676 11.199153-2.528841 4.154525-5.599577 16.256835 7.22526 31.791145 12.824837 15.714941 39.5583 46.602928 42.448404 52.202505 2.709473 5.599577 21.856412 11.199153 35.945669 8.670312 14.269889-2.528841 26.733463-5.599577 27.63662-8.128418s-1.625684-5.780208-11.199153-12.824837c-9.57347-7.044629-10.115364-21.856412-8.670312-27.63662 1.445052-5.780208-8.850944-19.508203-14.992415-20.953255-6.141471-1.445052-15.714941-11.741048-17.521256-19.869466-1.986947-8.128418-2.709473-8.670312 1.083789-8.850944 3.973893-0.361263 7.044629 4.515788 16.256835-5.238314C505.768213 378.964897 508.297054 379.145528 510.825895 379.145528z" p-id="12948" fill="#c71638"></path><path d="M532.501676 390.705945c3.431999 3.793262 21.314518 25.288411 28.178515 28.901041 6.683366 3.61263 21.314518 2.709473 31.610513 0 10.295996-2.709473 13.005468-7.767155 11.741048-13.1861-1.264421-5.418945-0.541895-27.817252-2.34821-30.526724-1.806315-2.528841-2.34821-5.96084-13.005468-6.322103s-48.228612-3.793262-52.925031-2.890104-13.366731 6.322103-13.366731 9.934733S528.16652 385.828894 532.501676 390.705945z" p-id="12949" fill="#c71638"></path><path d="M588.858705 357.650379c0 0 5.780208-9.392838 22.75957-11.921679 16.979361-2.528841 32.874934 6.502734 36.668195 14.45052 3.793262 7.947786 0.361263 43.712824 5.599577 50.938084 5.238314 7.22526 5.057682 16.256835 18.424413 14.631152 13.366731-1.445052-13.727994 21.314518-22.037044 27.817252s-38.113247 17.340624-40.461457 24.385253-0.903158 15.173046-2.528841 16.437467c-1.625684 1.083789-16.437467 1.264421-28.720409-2.890104-12.282942-4.335156-29.804198-20.591992-34.500617-26.552831s-10.115364-2.34821-11.018522-3.61263-2.709473-5.418945 9.392838-12.282942 19.146939-9.031575 35.223143 1.264421c16.076204 10.476627 38.655142 2.528841 47.867349-9.031575s14.089257-16.979361 11.560416-18.243782-22.037044 1.625684-23.843359-2.709473c-1.806315-4.335156 6.322103-34.319986 3.251367-43.893456C613.243958 366.501323 613.063327 363.249956 588.858705 357.650379z" p-id="12950" fill="#c71638"></path><path d="M474.518963 505.226319c5.418945 0 74.239548 0 79.297231 0 5.057682 0 16.437467 5.599577 20.050097 14.811783s-3.070736 12.824837-6.502734 15.353678c-3.431999 2.528841-34.86188 43.351561-38.293879 43.532193-3.431999 0.361263-18.966308-1.083789-25.107779-6.141471-6.141471-5.057682-15.353678-16.437467-21.133886-28.901041-5.780208-12.644205-16.979361-20.230729-22.578938-23.482096S456.094549 505.045687 474.518963 505.226319z" p-id="12951" fill="#c71638"></path><path d="M637.809843 501.071794c3.61263-5.418945 15.353678-21.856412 20.591992-20.050097 5.238314 1.625684 14.269889 23.120833 17.340624 43.532193 3.251367 20.41136 2.34821 24.02399 0 27.275357s-62.137238 14.45052-78.574705 11.741048c-16.437467-2.709473-17.340624-10.115364-17.882519-12.824837-0.541895-2.709473 44.43535-28.178515 49.312401-31.24925C633.474687 516.425472 634.919739 505.226319 637.809843 501.071794z" p-id="12952" fill="#c71638"></path><path d="M666.530252 326.401129c2.890104-5.599577 14.811783-15.353678 41.906509 0 27.094726 15.353678 67.014288 54.731346 70.626918 87.064385s5.780208 31.068619-3.431999 67.375551-3.431999 45.699771-10.657259 56.176398-26.733463 14.811783-42.990298 13.1861c-16.256835-1.625684-52.744399-5.057682-41.906509-48.04798 10.83789-42.990298 23.482096-43.351561 28.720409-84.354913C714.216969 376.797319 641.06121 374.087846 666.530252 326.401129z" p-id="12953" fill="#c71638"></path><path d="M399.556888 464.222967c3.070736-2.528841 6.683366-0.903158 7.586523 3.431999 0.903158 4.154525 20.050097 44.615982 32.152408 57.260187 11.921679 12.644205 25.649674 18.966308 24.927148 39.197037-0.903158 20.230729-17.521256 8.128418-57.440818-7.767155-15.895572-7.22526-23.120833-30.707356-22.037044-41.906509 1.083789-11.199153-7.586523-16.256835-4.515788-24.02399S389.802787 472.351385 399.556888 464.222967z" p-id="12954" fill="#c71638"></path><path d="M375.894161 500.891162c0.541895 4.877051-27.997883 5.599577-28.720409 21.495149s0 54.00882 0 65.930499c0 11.921679-0.722526 19.688834-13.727994 20.41136-13.005468 0.722526-24.927148-6.683366-32.333039-28.359146-7.405892-21.675781-14.811783-45.699771-4.515788-108.378903 10.476627-62.498501 29.081672-78.574705 49.493032-95.192803 20.41136-16.79873 35.403775-49.854295 48.409243-72.975128 13.005468-23.120833 43.532193-30.165461 52.563768-19.327571 8.850944 10.83789 24.565885 18.966308 63.943553 13.005468 39.377668-5.96084 80.742283-0.722526 94.83154 11.199153 14.089257 11.921679 0.722526 22.398307-8.128418 26.733463-8.850944 4.515788-30.346093 18.605045-65.207973 0.361263s-59.066502-27.455989-80.742283-14.45052c-21.495149 13.005468-29.442935 33.958723-54.00882 47.325454s-20.050097 25.288411-10.476627 63.943553C387.454578 432.793085 368.849533 442.727818 375.894161 500.891162z" p-id="12955" fill="#c71638"></path><path d="M379.506791 561.583348c3.973893 5.780208 42.629035 50.576821 109.28206 38.293879 66.653025-12.282942 97.17975 11.741048 146.853413-10.115364 0 0 109.462692-1.264421 154.620568-25.830305 45.157876-24.385253 51.299347-27.817252 51.299347-27.817252s9.57347 63.58229 9.57347 84.896807-0.541895 75.865232-53.647557 96.637855c-53.105662 20.591992-59.96966-29.081672-136.376786-32.874934-76.407126-3.973893-104.40501 11.741048-134.389839 43.532193-30.165461 31.791145-74.781443-7.22526-99.347328-30.707356s-89.954489-84.354913-55.815135-139.628153C374.268478 554.719351 375.71353 556.164403 379.506791 561.583348z" p-id="12956" fill="#c71638"></path><path d="M632.210266 711.507497c0 0 49.131769-13.908626 110.004586 11.741048s76.407126 23.482096 113.797848 3.431999c0 0 20.050097 48.589875-24.565885 111.088375s-165.277827 63.040395-213.325807 36.848827c0 0-55.815135 83.813018-145.22773 72.07197s-145.22773-102.237432-117.771741-162.387723c27.275357-60.330923 85.438702-43.893456 85.438702-43.893456s14.992415 23.843359 47.506086 33.778091c0 0-11.741048 55.27324 6.141471 67.556183 0 0 16.256835-73.697654 72.07197-105.488799 0 0-1.083789 27.997883 24.02399 46.422297 21.856412 24.565885 11.741048 53.647557 11.741048 53.647557s34.139354-17.882519 10.115364-64.124184c-7.767155-14.45052-39.016405-44.074087-23.482096-52.563768 15.714941-8.309049 61.956606-1.083789 68.098077 68.098077C656.776151 787.372729 688.567296 749.440113 632.210266 711.507497z" p-id="12957" fill="#c71638"></path><path d="M811.396719 440.740871c0 0-22.940201-108.920797-64.84671-126.803316-41.906509-17.882519-60.330923-63.040395 0-70.988181 60.330923-7.767155 87.064385 17.882519 104.40501 55.27324 17.340624 37.390721 9.57347 89.954489 120.119951 178.102664 0 0-24.02399 78.755336-34.139354 171.419298-10.115364 92.663962-64.84671 78.213442-69.181866 64.124184s12.282942-114.159111-0.541895-148.117834-27.63662-41.545246-27.63662-41.545246-0.180632-24.565885 55.092609-27.455989c0 0-34.681249-10.115364-55.092609 4.877051s-32.152408-11.741048-23.120833-29.081672c8.850944-17.340624 44.074087-40.82272 44.074087-40.82272S822.595872 417.258776 811.396719 440.740871z" p-id="12958" fill="#c71638"></path><path d="M474.518963 225.066855c10.476627-2.167578 71.891339-10.115364 126.983948 0 55.092609 10.115364 71.530076 31.791145 72.975128 54.550714 1.445052 22.75957-5.238314 35.042512-20.050097 35.042512-14.811783 0-43.17093-32.874934-107.475745-47.325454s-85.980596 1.264421-88.509437 1.625684c-2.528841 0.361263-10.115364-18.605045 0-35.042512C462.958546 227.595696 474.518963 225.066855 474.518963 225.066855z" p-id="12959" fill="#c71638"></path><path d="M434.418769 135.292997c0 0-32.333039 76.407126-108.378903 96.276592-11.560416 3.431999-5.238314 70.265655 16.79873 83.451755 22.037044 13.005468 8.128418-27.997883 85.619333-70.626918s102.0568-30.526724 151.188569-31.610513 77.490916 29.262304 77.490916 29.262304 33.416828 1.806315 35.042512 0c1.445052-1.806315 5.96084-20.772623-13.727994-33.778091-3.431999-4.154525-10.657259-42.087141-16.979361-43.893456-6.502734-1.806315-72.613865 7.767155-130.415946-12.282942S448.869289 132.402893 434.418769 135.292997z" p-id="12960" fill="#c71638"></path><path d="M291.539249 389.441524c0 0 38.113247-9.57347 48.770506-48.04798s-48.589875-78.213442-92.122067-76.407126c-43.532193 1.625684-46.964191 30.707356-103.863115 38.47451 0 0-19.508203 55.815135-49.131769 100.973011S60.511554 600.961016 116.868584 678.632563s144.505204 124.455107 231.388957 100.431117c0 0-158.233198-130.596578-171.058035-180.270242-12.824837-49.673664 8.670312-135.65426 33.59746-148.479097 24.927148-12.824837 47.867349-3.431999 54.00882-15.895572 6.141471-12.463574-46.964191-27.997883-45.699771-76.768389 0 0 17.701887 34.319986 51.299347 57.982713 0 0 20.230729-53.466925 16.076204-67.917446-1.445052-3.61263 6.502734-5.057682 8.128418 4.335156S291.539249 389.441524 291.539249 389.441524z" p-id="12961" fill="#c71638"></path><path d="M257.038631 458.62339c-16.256835 0.903158-44.074087 6.863997-48.589875 36.487564-4.515788 29.442935-18.424413 78.394073-5.057682 100.250485 13.366731 21.856412 119.939319 144.143941 144.866467 149.743517 24.927148 5.599577 50.576821 3.431999 62.859764-12.824837s-58.705239-107.837008-70.988181-110.004586-57.982713-1.083789-63.58229-8.309049C270.947257 606.560593 304.364085 455.913918 257.038631 458.62339z" p-id="12962" fill="#c71638"></path></svg>